<?xml version="1.0" encoding="utf-8"?>
<!-- Generator: Adobe Illustrator 24.3.0, SVG Export Plug-In . SVG Version: 6.00 Build 0)  -->
<svg version="1.1" id="_x31_" xmlns="http://www.w3.org/2000/svg" xmlns:xlink="http://www.w3.org/1999/xlink" x="0px" y="0px"
	 width="1200px" height="1200px" viewBox="0 0 1200 1200" enable-background="new 0 0 1200 1200" xml:space="preserve">
<path fill="#D63515" d="M243.648,581.512c0,0,6.8,11.05,11.901,28.901c5.1,17.851,5.525,45.477,26.776,39.952
	c21.251-5.525,144.506-71.403,144.506-71.403c0,42.502,32.301,117.332,32.301,117.332s-24.651-7.252-28.051,9.324
	c-3.4,16.576,9.775,39.952,9.775,39.952c-19.551-3.4-30.176-22.951-30.176-22.951l-7.225,5.95
	c0.85,31.026,25.926,44.627,25.926,44.627c-38.252,6.375-57.803-33.576-57.803-33.576l-5.95,4.25
	c-3.825,18.701,15.301,43.777,15.301,43.777c-42.927-14.876-53.552-52.702-53.552-52.702l-97.754,34.427
	c0,0,3.825-60.778-18.276-107.105c-22.101-46.327-65.028-51.852-65.028-51.852C176.92,588.737,243.648,581.512,243.648,581.512z
	 M278.074,880.3c0,0,38.677,34.852,47.602,86.704c8.925,51.852-19.126,139.831-19.126,139.831s67.153-25.926,85.429-24.651
	c0,0-4.675,11.475,6.8,32.301c11.475,20.826,18.276,23.801,18.276,23.801s-2.975-33.151,4.25-40.377
	c0,0,14.451,27.626,29.326,37.402c0,0-4.675-45.477,1.7-48.027c6.375-2.55,6.375,24.226,22.526,30.601
	c0,0-14.451-45.052,24.226-66.303c38.677-21.251,62.053-27.626,62.053-27.626l93.079-204.859c0,0-104.98-22.951-157.682-82.029
	l-62.903,55.252l-9.35,78.203l59.503,79.053c0,0-87.979,8.5-99.454,8.075c-11.476-0.425,2.975-90.529,1.275-90.954
	C383.904,866.274,278.074,880.3,278.074,880.3z M1040.133,249.572c-25.076,61.628-85.004,81.604-85.004,81.604
	s54.827-43.352,39.102-93.504c0,0-39.527,100.729-100.305,123.68c0,0,57.803-42.077,43.352-113.48s-98.604-70.978-120.705,8.5
	c-22.101,79.478,9.775,144.931,39.952,202.309c30.176,57.378,101.155,138.981,105.405,207.834
	c4.25,68.853-34.851,106.68-105.405,88.829c0,0-7.225,96.054-5.525,110.505c1.7,14.451,69.703,5.525,69.703,5.525l34.852,46.327
	l0.425,49.302c0,0,32.301-6.375,40.377-27.626c0,0-5.95,36.127-29.326,51.852c0,0,17.001,10.2,37.827-14.026
	c0,0-0.85,25.926-25.926,51.852c0,0,10.201,8.925,26.351-7.225c0,0,1.275,40.802-59.078,63.328l-9.775,81.178
	c0,0-59.928-49.727-119.855-49.302c-59.928,0.425-110.08,39.952-110.08,39.952l6.8-120.28l124.105,19.126
	c0,0,13.176-75.228,20.826-89.254c0,0-78.628,42.502-93.929,54.402l-110.08-101.154l10.625-120.705
	c0,0-110.283-9.021-167.882-82.879s-54.827-129.631-54.827-129.631l62.903,32.726l30.601-60.353l-45.477,38.677l-102.855-67.153
	c0,0-36.977,31.026-84.579,16.576c0,0,22.101-8.075,21.676-22.526c0,0-59.503,28.476-94.354-3.4c0,0,62.903-1.275,72.678-21.251
	c0,0-21.251,4.675-39.527,3.4c-18.276-1.275-22.929-7.329-22.929-7.329c22.526,2.55,55.231-33.048,55.231-33.048l-133.881-98.179
	c0,0,43.352-29.326,64.603-70.128c21.251-40.802,2.338-77.353,2.338-77.353l103.492,48.877c0,0-36.127,53.127-36.127,55.677
	c0,2.55,87.554,82.454,87.554,82.454s22.951-33.152,26.776-35.277c0,0-3.4,42.927,13.176,71.828
	c16.576,28.901,30.176,27.626,30.176,27.626l22.526-49.302l74.378-18.701v79.053l78.629-49.302v93.504
	c0,0,72.253-65.878,85.004-67.153c0,0-21.251,77.353,9.775,129.631c31.026,52.277,90.104,65.028,105.405,79.479
	c15.301,14.451,22.101,38.677,22.101,38.677s36.127,1.275,34.427-62.903c-1.7-64.178-40.377-90.104-68.853-141.956
	c-28.476-51.852-67.578-112.63-67.578-112.63s-11.05,68.853-4.675,95.629c0,0-15.301-10.2-19.126-46.752l-70.128,41.227
	l-16.151-73.528l-59.928,32.301l-8.925-66.728c0,0-70.978,44.202-133.456,39.102c0,0,57.436-32.301,86.733-65.028
	c29.297-32.726,42.473-59.928,42.473-59.928l105.405-22.101l-1.275-49.727l-14.451,36.127l-114.755,23.376l-31.026,58.653
	c0,0-20.401-53.552-17.426-65.453c2.975-11.901,68.003-14.026,66.728-14.026c-1.275,0-6.375-18.276-6.375-18.276
	s-88.404,3.825-120.28,20.401c-31.876,16.576-32.726,42.927-51.852,45.477s-0.85-48.452,50.577-62.053
	c51.427-13.601,113.905-14.876,118.58-14.876s7.65-14.451,7.65-14.451s-47.177-7.65-78.203,6.8c0,0-11.475-47.177-11.475-49.727
	c0-2.55,73.953-13.601,76.928-14.876c2.975-1.275-2.125-16.576,29.326-17.426s68.428-5.525,68.428-5.525s5.95-12.751,17.426-14.876
	c11.475-2.125,13.176,2.125,19.976,3.4c6.8,1.275,6.8-13.176,20.826-17.001c14.026-3.825,14.876,1.275,30.601,33.576
	c15.726,32.301,22.101,55.677,22.101,55.677s24.226-68.003,64.603-104.555c40.377-36.552,72.678-48.027,72.678-48.027
	l-17.426,31.451c0,0,62.903-29.326,123.68,7.65C1057.984,109.741,1065.209,187.944,1040.133,249.572z M587.807,159.043
	l-26.139,1.913c0,0,1.275,11.794,14.663,10.838C589.719,170.837,587.807,159.043,587.807,159.043z"/>
</svg>
